<?xml version="1.0" ?><!DOCTYPE svg  PUBLIC '-//W3C//DTD SVG 1.1//EN'  'http://www.w3.org/Graphics/SVG/1.1/DTD/svg11.dtd'><svg enable-background="new 0 0 32 32" height="32px" version="1.1" viewBox="0 0 32 32" width="32px" xml:space="preserve" xmlns="http://www.w3.org/2000/svg" xmlns:xlink="http://www.w3.org/1999/xlink"><g id="play"/><g id="stop"/><g id="pause"/><g id="replay"><g><g><path d="M15,26H6     c-1.1,0-2-0.9-2-2V7c0-1.1,0.9-2,2-2h20c1.1,0,2,0.9,2,2v17c0,1.1-0.675,2-1.5,2S25,26,25,26" fill="none" stroke="#231F20" stroke-linecap="round" stroke-miterlimit="10" stroke-width="2"/></g><g><path d="M21.124,23.732C21.605,23.467,22,23.7,22,24.25     v3.5c0,0.55-0.395,0.783-0.876,0.518l-3.248-1.786c-0.481-0.265-0.481-0.699,0-0.964L21.124,23.732z" fill="none" stroke="#231F20" stroke-miterlimit="10" stroke-width="2"/></g></g></g><g id="next"/><g id="Layer_8"/><g id="search"/><g id="list"/><g id="love"/><g id="menu"/><g id="add"/><g id="headset"/><g id="random"/><g id="music"/><g id="setting"/><g id="Layer_17"/><g id="Layer_18"/><g id="Layer_19"/><g id="Layer_20"/><g id="Layer_21"/><g id="Layer_22"/><g id="Layer_23"/><g id="Layer_24"/><g id="Layer_25"/><g id="Layer_26"/></svg>